<svg width="27" height="28" viewBox="0 0 27 28" fill="none" xmlns="http://www.w3.org/2000/svg">
<g id="Group 1">
<path id="Union" fill-rule="evenodd" clip-rule="evenodd" d="M6.71676 22.3492C8.53516 23.7891 10.834 24.6489 13.3336 24.6489H13.3336V15.7323L6.71676 22.3492ZM4.84806 20.4466C3.4795 18.6529 2.66672 16.4124 2.66672 13.982C2.66672 8.09088 7.44245 3.31516 13.3336 3.31516L13.3783 3.31525H13.3336V11.961L4.84806 20.4466ZM24.0005 13.982C24.0005 18.9524 20.601 23.1287 16.0004 24.3129V3.65122C20.601 4.83537 24.0005 9.01172 24.0005 13.982ZM13.3336 0.648438C5.96966 0.648438 0 6.6181 0 13.982C0 21.346 5.96966 27.3156 13.3336 27.3156C20.6975 27.3156 26.6672 21.346 26.6672 13.982C26.6672 6.6181 20.6975 0.648438 13.3336 0.648438Z" fill="#CC0000"/>
</g>
</svg>
