<svg width="133" height="32" viewBox="0 0 133 32" fill="none" xmlns="http://www.w3.org/2000/svg">
<g id="Group 1">
<path id="Union" fill-rule="evenodd" clip-rule="evenodd" d="M90.9438 2.26126C90.9438 1.64456 91.1608 1.11921 91.5948 0.685229C92.0516 0.228408 92.5884 0 93.2051 0C93.8218 0 94.3471 0.228408 94.7811 0.685229C95.2379 1.11921 95.4663 1.64456 95.4663 2.26126C95.4663 2.87797 95.2379 3.41474 94.7811 3.87156C94.3471 4.30554 93.8218 4.52253 93.2051 4.52253C92.5884 4.52253 92.0516 4.30554 91.5948 3.87156C91.1608 3.41474 90.9438 2.87797 90.9438 2.26126ZM98.8582 19.4606L99.4407 20.0088V20.3856C99.0067 20.911 98.5042 21.4592 97.9332 22.0302C97.3622 22.5784 96.7454 23.0466 96.083 23.4349C95.4435 23.8004 94.7811 23.9831 94.0959 23.9831C93.6847 23.9831 93.2964 23.8917 92.931 23.709C92.5655 23.5491 92.2686 23.3207 92.0402 23.0238C91.7432 22.6126 91.5491 22.1101 91.4577 21.5163C91.3664 20.9224 91.3321 20.1001 91.355 19.0494C91.3778 17.9759 91.3892 16.5712 91.3892 14.8353V10.8267C91.3664 10.4612 91.275 10.0957 91.1151 9.73029C90.9781 9.34199 90.6697 9.14784 90.1901 9.14784C89.8246 9.14784 89.4363 9.26205 89.0252 9.49046C88.6369 9.69603 88.2371 9.94728 87.826 10.2442L87.2778 9.49046C87.8032 9.05648 88.3742 8.6225 88.9909 8.18852C89.6305 7.75454 90.2814 7.38908 90.9438 7.09215C91.6062 6.79521 92.2686 6.64675 92.931 6.64675C93.2736 6.64675 93.6048 6.71527 93.9246 6.85232C94.2443 6.96652 94.4842 7.16067 94.6441 7.43476C94.7811 7.66317 94.8839 7.94869 94.9524 8.2913C95.0209 8.63392 95.0552 9.30773 95.0552 10.3127C95.0552 10.998 95.0324 11.6946 94.9867 12.4027C94.9638 13.0879 94.9524 13.7732 94.9524 14.4584C94.9524 15.8517 94.941 17.0394 94.9182 18.0216C94.9182 19.0038 95.0209 19.7575 95.2265 20.2829C95.4321 20.8082 95.8318 21.0709 96.4257 21.0709C96.8368 21.0709 97.2594 20.8881 97.6933 20.5227C98.1273 20.1572 98.5156 19.8032 98.8582 19.4606ZM131.226 20.7282L130.849 20.0772L130.335 19.9402C129.558 20.4198 128.725 20.8424 127.834 21.2078C126.966 21.5733 126.064 21.756 125.127 21.756C124.031 21.756 123.106 21.4934 122.352 20.968C121.598 20.4198 121.027 19.7232 120.639 18.8781C120.251 18.0329 120.057 17.1536 120.057 16.2399C120.787 16.0115 121.633 15.7488 122.592 15.4519C123.551 15.155 124.522 14.858 125.504 14.5611C126.486 14.2642 127.4 13.9901 128.245 13.7388C129.09 13.4647 129.775 13.2477 130.301 13.0878L131.089 12.848C131.409 12.7338 131.648 12.5853 131.808 12.4026C131.991 12.2199 132.082 11.9458 132.082 11.5803C132.082 10.3241 131.763 9.3305 131.123 8.59958C130.483 7.86867 129.661 7.35474 128.656 7.05781C127.651 6.73804 126.612 6.57815 125.538 6.57815C123.917 6.57815 122.501 6.86366 121.29 7.43469C120.102 7.98287 119.109 8.73663 118.309 9.69595C117.51 10.6324 116.916 11.6945 116.528 12.8823C116.139 14.07 115.945 15.292 115.945 16.5483C115.945 17.599 116.082 18.6382 116.356 19.6661C116.653 20.6939 117.213 21.5847 118.035 22.3385C118.72 22.978 119.531 23.4234 120.468 23.6747C121.427 23.9488 122.398 24.0858 123.38 24.0858C124.316 24.0858 125.241 23.9145 126.155 23.5719C127.069 23.2521 127.948 22.841 128.793 22.3385C129.661 21.8131 130.472 21.2764 131.226 20.7282ZM124.339 13.5332C123.357 13.8073 122.078 14.1956 120.502 14.6981C120.479 14.6981 120.445 14.7096 120.399 14.7324H120.296C120.136 14.7324 120.057 14.6753 120.057 14.5611C120.057 13.9444 120.125 13.2592 120.262 12.5054C120.422 11.7288 120.673 10.9979 121.016 10.3127C121.358 9.62743 121.838 9.06782 122.455 8.63384C123.072 8.17702 123.837 7.94861 124.75 7.94861C125.504 7.94861 126.109 8.14276 126.566 8.53106C127.023 8.91936 127.354 9.41044 127.56 10.0043C127.765 10.5753 127.868 11.1578 127.868 11.7516C127.868 12.0029 127.777 12.2085 127.594 12.3684C127.411 12.5054 127.069 12.6653 126.566 12.848C126.064 13.0079 125.321 13.2363 124.339 13.5332ZM103.611 23.7435L107.243 22.4073C107.174 21.5393 107.094 20.58 107.003 19.5293C106.935 18.4786 106.877 17.5079 106.832 16.6171C106.786 15.7263 106.763 15.0982 106.763 14.7327C106.763 14.0931 106.843 13.3965 107.003 12.6427C107.186 11.8661 107.506 11.2038 107.962 10.6556C108.442 10.0845 109.127 9.79903 110.018 9.79903C110.589 9.79903 111.035 9.99318 111.354 10.3815C111.674 10.7698 111.88 11.2038 111.971 11.6834L112.416 11.9575L114.986 9.97034C114.986 9.19374 114.78 8.48567 114.369 7.84612C113.958 7.20657 113.262 6.88679 112.279 6.88679C111.617 6.88679 110.977 7.04668 110.361 7.36646C109.744 7.66339 109.162 8.05169 108.613 8.53135C108.065 8.98817 107.563 9.45641 107.106 9.93607L106.729 9.76477C106.729 8.91965 106.581 8.21158 106.284 7.64055C106.01 7.06952 105.404 6.78401 104.468 6.78401C103.828 6.78401 103.189 6.93248 102.549 7.22941C101.932 7.52634 101.327 7.8918 100.733 8.32578C100.139 8.73692 99.5798 9.14806 99.0544 9.5592L99.6026 10.3472C99.9224 10.096 100.311 9.86755 100.768 9.66198C101.224 9.43357 101.613 9.31937 101.932 9.31937C102.389 9.31937 102.698 9.52494 102.857 9.93607C103.017 10.3244 103.109 10.8383 103.132 11.4778C103.154 12.1174 103.166 12.7798 103.166 13.465L103.132 14.1845C103.132 14.6413 103.12 15.258 103.097 16.0346C103.097 16.7884 103.086 17.6107 103.063 18.5015L102.995 21.1739C102.972 22.0418 102.949 22.8184 102.926 23.5037L103.611 23.7435ZM70.532 31.9999L74.6777 30.972V23.0233L74.7462 22.8178C75.203 23.1147 75.6827 23.3088 76.1852 23.4002C76.6877 23.4916 77.1902 23.5373 77.6927 23.5373C79.1317 23.5373 80.3994 23.2632 81.4957 22.715C82.6149 22.1668 83.54 21.4245 84.2709 20.488C85.0247 19.5515 85.5957 18.5122 85.984 17.3702C86.3723 16.2053 86.5664 15.0175 86.5664 13.807C86.5664 12.9847 86.4751 12.1624 86.2924 11.3401C86.1325 10.5179 85.8355 9.7641 85.4016 9.07887C84.9676 8.39364 84.3737 7.84545 83.6199 7.43431C82.8662 7.02317 81.9183 6.8176 80.7762 6.8176C79.7941 6.8176 78.7662 7.05743 77.6927 7.5371C76.642 8.01676 75.6827 8.5421 74.8147 9.11313L74.5406 8.97608C74.5178 8.38222 74.3236 7.87971 73.9582 7.46857C73.6156 7.03459 73.0674 6.8176 72.3136 6.8176C71.3543 6.8176 70.4064 7.11454 69.4699 7.7084C68.5334 8.30227 67.6655 8.90756 66.866 9.52427L67.3457 10.3465C67.6655 10.1638 68.0309 9.95825 68.4421 9.72984C68.8532 9.50143 69.2072 9.38722 69.5042 9.38722C69.9838 9.38722 70.315 9.56995 70.4978 9.93541C70.6805 10.3009 70.7833 10.7919 70.8061 11.4087C70.829 12.0025 70.8404 12.6535 70.8404 13.3616C70.8404 15.3031 70.8175 17.0161 70.7719 18.5008C70.749 19.9626 70.7033 21.276 70.6348 22.4409C70.5891 23.5829 70.532 24.645 70.4635 25.6272C70.395 26.6094 70.3265 27.5801 70.2579 28.5394C70.2122 29.5216 70.1666 30.5723 70.1209 31.6915L70.532 31.9999ZM77.8297 22.0983C76.8704 22.0983 76.0481 21.7899 75.3629 21.1732C74.9518 20.7849 74.6891 20.2938 74.5749 19.7C74.4835 19.1061 74.4378 18.5236 74.4378 17.9526V10.9975C75.0317 10.6092 75.6713 10.2438 76.3565 9.90114C77.0417 9.53569 77.7384 9.35296 78.4464 9.35296C79.3144 9.35296 80.0111 9.55853 80.5364 9.96967C81.0618 10.358 81.4615 10.8719 81.7356 11.5114C82.0097 12.151 82.1924 12.8362 82.2837 13.5671C82.3979 14.298 82.4551 14.9947 82.4551 15.6571C82.4551 16.3652 82.3865 17.0961 82.2495 17.8498C82.1124 18.6036 81.8726 19.3002 81.53 19.9398C81.2102 20.5793 80.742 21.1047 80.1253 21.5158C79.5314 21.9041 78.7662 22.0983 77.8297 22.0983ZM66.1521 8.94348L63.651 11.4788L63.1371 11.3418C63.0686 10.7936 62.8973 10.2568 62.6232 9.7315C62.3719 9.20615 62.0179 8.77218 61.5611 8.42956C61.1042 8.0641 60.5104 7.88137 59.7795 7.88137C59.0029 7.88137 58.4318 8.10979 58.0664 8.56661C57.7238 9.00059 57.5525 9.59445 57.5525 10.3482C57.5525 11.0106 57.7809 11.593 58.2377 12.0955C58.7174 12.5752 59.2884 12.9864 59.9508 13.329C60.636 13.6716 61.2641 13.9799 61.8352 14.254C62.8858 14.7337 63.7424 15.1791 64.4048 15.5902C65.0672 16.0014 65.5583 16.4582 65.878 16.9607C66.1978 17.4404 66.3577 18.0571 66.3577 18.8108C66.3577 19.7016 66.1293 20.4782 65.6725 21.1406C65.2385 21.803 64.656 22.3512 63.9251 22.7852C63.1942 23.2191 62.3833 23.5389 61.4925 23.7445C60.6246 23.9501 59.768 24.0528 58.9229 24.0528C57.8037 24.0528 56.7302 23.893 55.7023 23.5732C54.6973 23.2534 53.7951 22.6481 52.9957 21.7573L55.1542 18.5367L55.6681 18.571C55.8508 19.2105 56.0792 19.8615 56.3533 20.5239C56.6502 21.1634 57.0614 21.7002 57.5867 22.1342C58.1121 22.5682 58.8087 22.7852 59.6767 22.7852C60.4304 22.7852 61.0928 22.5682 61.6639 22.1342C62.2349 21.6774 62.5204 21.0607 62.5204 20.2841C62.5204 19.9643 62.4519 19.6788 62.3148 19.4275C62.1778 19.1763 61.9836 18.9364 61.7324 18.708C61.3898 18.3883 60.9101 18.0799 60.2934 17.783C59.6767 17.486 59.0257 17.1663 58.3405 16.8236C57.6552 16.481 56.9929 16.1042 56.3533 15.693C55.7366 15.259 55.2227 14.768 54.8115 14.2198C54.4232 13.6487 54.2291 12.9749 54.2291 12.1983C54.2291 10.8964 54.5489 9.83428 55.1884 9.012C55.8508 8.18973 56.6959 7.58444 57.7238 7.19614C58.7745 6.80784 59.8823 6.6137 61.0471 6.6137C62.0522 6.6137 63.0229 6.75074 63.9594 7.02483C64.9187 7.29893 65.6496 7.93848 66.1521 8.94348ZM49.137 6.95508L48.6573 6.64672L46.6016 7.94866C45.8478 7.49184 45.0598 7.1378 44.2375 6.88655C43.4153 6.61246 42.5359 6.47541 41.5994 6.47541C38.8813 6.47541 36.8142 7.36621 35.3981 9.14782C34.0048 10.9066 33.3081 13.5219 33.3081 16.9937C33.3081 17.7018 33.388 18.467 33.5479 19.2892C33.7078 20.0887 33.9705 20.8539 34.336 21.5848C34.7243 22.3157 35.2268 22.9096 35.8435 23.3664C36.483 23.8232 37.2596 24.0516 38.1732 24.0516C39.3381 24.0516 40.4688 23.8004 41.5651 23.2979C42.6615 22.7725 43.6551 22.1786 44.5459 21.5162L44.9913 21.6876C45.0598 22.1901 45.2311 22.6926 45.5052 23.1951C45.8022 23.6976 46.3389 23.9488 47.1155 23.9488C47.8921 23.9488 48.623 23.7661 49.3083 23.4006C49.9935 23.0123 50.6216 22.5441 51.1927 21.9959C51.7865 21.4249 52.3119 20.8653 52.7687 20.3171L52.1177 19.5976C51.7751 19.8945 51.3868 20.2143 50.9528 20.5569C50.5188 20.8767 50.1077 21.0366 49.7194 21.0366C49.1484 21.0366 48.8172 20.6369 48.7258 19.8374C48.6345 19.0152 48.5888 17.8388 48.5888 16.3085C48.5888 14.7553 48.6345 13.2021 48.7258 11.6489C48.84 10.0729 48.9771 8.50827 49.137 6.95508ZM44.8543 10.2784C44.9913 10.9637 45.0598 11.6032 45.0598 12.1971C45.0598 12.9737 45.0484 13.8417 45.0256 14.801C45.0027 15.7375 44.9685 16.6397 44.9228 17.5076C44.8999 18.3528 44.8543 19.0266 44.7857 19.5291C44.2832 19.9859 43.6779 20.4085 42.9699 20.7968C42.2846 21.1851 41.5537 21.3792 40.7771 21.3792C40.0691 21.3792 39.4752 21.1965 38.9955 20.831C38.5387 20.4656 38.1733 19.9973 37.8992 19.4263C37.6251 18.8324 37.4309 18.2043 37.3167 17.5419C37.2253 16.8795 37.1797 16.2514 37.1797 15.6575C37.1797 14.8809 37.2368 14.0358 37.351 13.1222C37.488 12.2085 37.7278 11.352 38.0705 10.5525C38.4131 9.73026 38.8927 9.06787 39.5095 8.56537C40.1262 8.04003 40.9256 7.77735 41.9078 7.77735C42.8442 7.77735 43.5295 8.02861 43.9635 8.53111C44.4203 9.01077 44.7172 9.59322 44.8543 10.2784Z" fill="#323338"/>
<path id="Union_2" fill-rule="evenodd" clip-rule="evenodd" d="M6.71627 23.3492C8.53467 24.7891 10.8335 25.6489 13.3331 25.6489H13.3332V16.7323L6.71627 23.3492ZM4.84757 21.4466C3.47901 19.6529 2.66623 17.4124 2.66623 14.982C2.66623 9.09088 7.44196 4.31516 13.3331 4.31516L13.3778 4.31525H13.3332V12.961L4.84757 21.4466ZM24 14.982C24 19.9524 20.6005 24.1287 15.9999 25.3129V4.65122C20.6005 5.83537 24 10.0117 24 14.982ZM13.3331 1.64844C5.96917 1.64844 -0.000488281 7.6181 -0.000488281 14.982C-0.000488281 22.346 5.96917 28.3156 13.3331 28.3156C20.6971 28.3156 26.6667 22.346 26.6667 14.982C26.6667 7.6181 20.6971 1.64844 13.3331 1.64844Z" fill="#CC0000"/>
</g>
</svg>
