<svg width="150" height="150" viewBox="0 0 150 150" fill="none" xmlns="http://www.w3.org/2000/svg">
<g id="Vote" opacity="0.1">
<path id="Union" fill-rule="evenodd" clip-rule="evenodd" d="M30.2983 120.201C41.2087 128.841 55.0019 134 70 134H70.0023L70.0023 80.4967L30.2983 120.201ZM19.0867 108.785C10.8761 98.0233 6 84.5811 6 70C6 34.6538 34.6538 6 70 6L70.1465 6.00017H70.0023V57.8692L19.0867 108.785ZM134 70C134 99.8206 113.605 124.878 86.0023 131.983L86.0023 8.01687C113.605 15.1224 134 40.1794 134 70ZM70 -10C25.8172 -10 -10 25.8172 -10 70C-10 114.183 25.8172 150 70 150C114.183 150 150 114.183 150 70C150 25.8172 114.183 -10 70 -10Z" fill="#CC0000"/>
</g>
</svg>
